<?xml version="1.0" standalone="no"?><!DOCTYPE svg PUBLIC "-//W3C//DTD SVG 1.1//EN" "http://www.w3.org/Graphics/SVG/1.1/DTD/svg11.dtd"><svg t="1727178507328" class="icon" viewBox="0 0 1024 1024" version="1.1" xmlns="http://www.w3.org/2000/svg" p-id="1432" xmlns:xlink="http://www.w3.org/1999/xlink" width="200" height="200"><path d="M396.544 135.968L73.28 459.2a44.8 44.8 0 0 0 0 63.36l323.264 323.264a35.2 35.2 0 0 0 24.896 10.304l3.84-0.192a35.2 35.2 0 0 0 31.36-35.008l-0.032-189.024 10.656 0.416c146.08 7.2 278.304 80.256 359.68 196.032l47.36 67.456 10.56-81.792c2.272-17.856 3.424-35.936 3.424-54.144l-0.096-9.792c-5.216-227.968-191.84-412.096-424.672-422.144l-6.88-0.224V160.832a35.2 35.2 0 0 0-60.096-24.864z m-3.904 94.368v163.04l33.408-1.44c5.76-0.256 11.584-0.384 17.408-0.384l9.696 0.096c189.888 4.608 345.024 143.552 368.16 321.92l1.152 10.304-2.496-2.56c-97.664-96.768-232.192-153.536-376.512-153.536-6.688 0-13.344 0.096-19.968 0.32l-30.848 1.152v182.176L132.096 490.88l260.544-260.544z" fill="#717378" p-id="1433"></path></svg>